<mxfile><diagram id="5Cigi063PIlbh_PJLs3f" name="ページ1"><mxGraphModel dx="1185" dy="1149" grid="1" gridSize="10" guides="1" tooltips="1" connect="1" arrows="1" fold="1" page="1" pageScale="1" pageWidth="827" pageHeight="1169" math="0" shadow="0"><root><mxCell id="0"/><mxCell id="1" parent="0"/><mxCell id="6" value="commentsテーブル" style="swimlane;fontStyle=0;childLayout=stackLayout;horizontal=1;startSize=26;horizontalStack=0;resizeParent=1;resizeParentMax=0;resizeLast=0;collapsible=1;marginBottom=0;align=center;fontSize=14;" vertex="1" parent="1"><mxGeometry x="150" y="594" width="480" height="86" as="geometry"/></mxCell><mxCell id="10" value="usersテーブル" style="swimlane;childLayout=stackLayout;horizontal=1;startSize=30;horizontalStack=0;rounded=1;fontSize=14;fontStyle=0;strokeWidth=2;resizeParent=0;resizeLast=1;shadow=0;dashed=0;align=center;arcSize=0;" vertex="1" parent="1"><mxGeometry x="10" y="250" width="340" height="180" as="geometry"/></mxCell><mxCell id="11" value="email(string型,NOT NULL,ユニーク制約)&#10;encrypted_password(string型,NOT NULL)&#10;name(string型,NOT NULL)&#10;profile(text型,NOT NULL)&#10;occupation(text型,NOT NULL)&#10;&#10;&#10;&#10;&#10;&#10;" style="align=left;strokeColor=none;fillColor=none;spacingLeft=0;fontSize=14;verticalAlign=top;resizable=0;rotatable=0;part=1;spacingTop=10;spacingBottom=10;spacing=10;labelBackgroundColor=none;" vertex="1" parent="10"><mxGeometry y="30" width="340" height="150" as="geometry"/></mxCell><mxCell id="15" value="prototypesテーブル" style="swimlane;childLayout=stackLayout;horizontal=1;startSize=30;horizontalStack=0;rounded=1;fontSize=14;fontStyle=0;strokeWidth=2;resizeParent=0;resizeLast=1;shadow=0;dashed=0;align=center;labelBackgroundColor=none;" vertex="1" parent="1"><mxGeometry x="460" y="250" width="350" height="170" as="geometry"/></mxCell><mxCell id="17" value="title(string型, NOT NULL)&lt;br&gt;catch_copy(text型,NOT NULL)&lt;br&gt;concept(text型, NOT NULL)&lt;br&gt;user(references型, NOT NULL,外部キー)" style="text;html=1;align=center;verticalAlign=middle;resizable=0;points=[];autosize=1;strokeColor=none;fillColor=none;fontSize=14;" vertex="1" parent="15"><mxGeometry y="30" width="350" height="140" as="geometry"/></mxCell><mxCell id="12" value="content(text型,NOT NULL)&lt;br&gt;prototype(refernces型,NOT NULL,外部キー)&lt;br&gt;user(references型,NOT NULL ,外部キー)" style="text;html=1;align=center;verticalAlign=middle;resizable=0;points=[];autosize=1;strokeColor=none;fillColor=none;fontSize=14;" vertex="1" parent="1"><mxGeometry x="160" y="620" width="480" height="60" as="geometry"/></mxCell><mxCell id="20" value="" style="edgeStyle=entityRelationEdgeStyle;fontSize=12;html=1;endArrow=ERoneToMany;exitX=1;exitY=0.75;exitDx=0;exitDy=0;startArrow=ERone;startFill=0;strokeWidth=2;" edge="1" parent="1" source="11" target="17"><mxGeometry width="100" height="100" relative="1" as="geometry"><mxPoint x="340" y="590" as="sourcePoint"/><mxPoint x="500" y="340" as="targetPoint"/></mxGeometry></mxCell><mxCell id="24" value="" style="fontSize=12;html=1;endArrow=ERoneToMany;fillColor=#f5f5f5;strokeColor=#0a0a0a;entryX=0;entryY=0.5;entryDx=0;entryDy=0;exitX=0.215;exitY=1.024;exitDx=0;exitDy=0;exitPerimeter=0;edgeStyle=orthogonalEdgeStyle;strokeWidth=2;startArrow=ERone;startFill=0;" edge="1" parent="1" source="11" target="6"><mxGeometry width="100" height="100" relative="1" as="geometry"><mxPoint x="80" y="460" as="sourcePoint"/><mxPoint x="330" y="530" as="targetPoint"/></mxGeometry></mxCell><mxCell id="26" value="" style="fontSize=12;html=1;endArrow=ERoneToMany;startArrow=ERone;startFill=0;strokeWidth=2;elbow=vertical;exitX=0.9;exitY=1.021;exitDx=0;exitDy=0;exitPerimeter=0;" edge="1" parent="1" source="17"><mxGeometry width="100" height="100" relative="1" as="geometry"><mxPoint x="700" y="450" as="sourcePoint"/><mxPoint x="630" y="650" as="targetPoint"/><Array as="points"><mxPoint x="780" y="650"/></Array></mxGeometry></mxCell></root></mxGraphModel></diagram></mxfile>